<svg version="1.1" id="Layer_1" xmlns="http://www.w3.org/2000/svg" xmlns:xlink="http://www.w3.org/1999/xlink" x="0px" y="0px"
	 width="100%" viewBox="0 0 200 200" enable-background="new 0 0 200 200" xml:space="preserve">
<path fill="#83ACFC" opacity="1.000000" stroke="none" 
	d="
M26.803738,81.352974 
	C26.768932,68.248787 31.482964,56.584435 38.786915,46.149326 
	C54.415073,23.821457 76.199089,12.747095 103.470108,13.155866 
	C137.523346,13.666297 169.039169,41.333382 174.063187,74.729210 
	C174.334473,76.532608 174.630539,78.332291 174.551300,80.504608 
	C170.371017,78.584358 166.797989,75.102112 162.684952,74.261185 
	C155.169540,72.724617 150.446686,77.598312 147.160522,83.546616 
	C145.398331,64.852005 131.639343,48.128849 114.256050,43.225883 
	C94.966171,37.785160 75.318855,44.306252 63.526386,59.573891 
	C58.061069,66.649803 55.915554,74.903152 53.218491,83.054665 
	C45.708282,72.035973 37.199501,71.213753 28.018196,80.527832 
	C27.681183,80.869720 27.211559,81.080887 26.803738,81.352974 
z"/>
<path fill="#8CF8D7" opacity="1.000000" stroke="none" 
	d="
M47.919437,141.035324 
	C36.188427,130.205338 29.751291,116.598572 27.018667,101.070145 
	C26.591873,98.644836 26.393852,96.179268 26.415924,93.523834 
	C29.092773,99.149109 33.427517,102.127495 39.701355,102.227722 
	C46.332142,102.333656 50.411808,98.703690 53.225464,92.983185 
	C53.426483,92.979500 53.827076,92.942757 53.892506,93.345779 
	C55.772797,107.039017 62.530235,117.479454 72.079956,126.623566 
	C81.676453,135.812500 90.762260,145.534790 99.955307,155.339203 
	C96.940834,158.454575 94.042915,161.254074 90.890045,164.146210 
	C90.443802,164.536041 90.252495,164.833206 90.055717,165.089417 
	C90.050247,165.048431 90.131844,165.061844 89.875656,165.160339 
	C89.453110,165.572922 89.286751,165.887024 89.120010,166.152008 
	C89.119629,166.102875 89.207039,166.147751 88.805359,166.165039 
	C88.002769,167.324768 87.601860,168.467194 87.239647,169.711700 
	C87.278343,169.813766 87.132607,169.976318 86.872490,170.123596 
	C86.620461,171.153473 86.628540,172.036057 86.669861,173.325500 
	C86.691971,174.819199 86.680840,175.906021 86.318893,176.992340 
	C85.263748,177.017853 84.559418,177.043900 83.855095,177.069946 
	C83.542130,176.999390 83.294128,176.832382 83.036278,175.966614 
	C81.921776,174.602081 80.882095,173.839813 79.842407,173.077545 
	C75.979675,169.285858 72.116951,165.494171 67.989090,161.149445 
	C67.225075,160.384628 66.726189,160.172836 66.227303,159.961044 
	C61.902893,155.538498 57.578484,151.115936 53.089394,146.040817 
	C51.256287,143.937271 49.587860,142.486298 47.919437,141.035324 
z"/>
<path fill="#0A5CFA" opacity="1.000000" stroke="none" 
	d="
M175.151428,94.963913 
	C173.920914,107.950912 169.879364,119.928146 161.810089,130.905914 
	C161.024567,131.405304 160.942856,131.696136 161.041351,132.037689 
	C161.041351,132.037689 160.998764,132.006332 160.724075,132.158264 
	C159.972931,133.233704 159.496475,134.157227 159.020020,135.080734 
	C159.020020,135.080734 158.843781,135.545288 158.393951,135.759140 
	C157.695511,136.392151 157.446899,136.811310 157.198273,137.230469 
	C157.198273,137.230469 157.046417,137.085144 156.868256,137.198730 
	C156.552963,137.633179 156.415817,137.954041 156.278671,138.274918 
	C156.278671,138.274918 156.042603,137.997604 155.841217,138.157776 
	C155.224808,138.997162 154.809784,139.676392 154.394745,140.355637 
	C154.394760,140.355637 154.222885,140.217926 154.003769,140.301331 
	C153.660568,140.702499 153.536469,141.020248 153.412384,141.337997 
	C153.412384,141.337997 153.186615,141.117264 152.926544,141.239212 
	C151.587112,142.705399 150.507767,144.049652 149.428421,145.393906 
	C149.428421,145.393906 149.165253,145.205200 148.943542,145.284912 
	C148.285187,146.034103 147.848541,146.703552 147.411896,147.373001 
	C147.411896,147.373001 147.259811,147.256363 147.026413,147.323364 
	C146.677094,147.710190 146.561157,148.029999 146.445221,148.349823 
	C146.445221,148.349823 146.365738,148.354431 146.080719,148.375549 
	C145.686157,148.716949 145.576614,149.037247 145.467056,149.357544 
	C145.467056,149.357544 145.383667,149.370224 145.093887,149.388153 
	C144.708801,149.727631 144.613510,150.049194 144.518219,150.370758 
	C144.518219,150.370758 144.424850,150.412308 144.120850,150.412552 
	C143.705093,150.730576 143.593323,151.048355 143.481567,151.366150 
	C143.481567,151.366150 143.395279,151.383575 143.102478,151.394012 
	C142.711411,151.725677 142.613129,152.046936 142.514847,152.368179 
	C142.514847,152.368179 142.422867,152.411728 142.122620,152.415497 
	C141.715805,152.735519 141.609238,153.051758 141.502670,153.367996 
	C141.502670,153.367996 141.417084,153.363770 141.060211,153.374725 
	C139.628830,154.729065 138.554306,156.072449 137.479767,157.415833 
	C137.479782,157.415833 137.389954,157.423798 137.110016,157.426849 
	C136.737350,157.742706 136.644638,158.055511 136.551926,158.368317 
	C136.551926,158.368317 136.453079,158.441406 136.142197,158.439026 
	C135.734207,158.748016 135.637100,159.059418 135.539993,159.370804 
	C135.539993,159.370804 135.442368,159.428726 135.133713,159.426666 
	C134.737823,159.741486 134.650589,160.058365 134.563354,160.375244 
	C134.563354,160.375244 134.462585,160.449997 134.149200,160.442474 
	C133.741623,160.748978 133.647430,161.062988 133.553238,161.376999 
	C133.553238,161.376999 133.454163,161.443680 133.143280,161.437088 
	C132.739136,161.746231 132.645874,162.061981 132.552628,162.377716 
	C132.552628,162.377716 132.458725,162.401535 132.136993,162.406525 
	C131.535706,162.931183 131.256134,163.450836 130.976562,163.970474 
	C130.976562,163.970474 131.000000,164.000610 130.669128,164.011017 
	C130.068634,164.494186 129.799026,164.966934 129.529419,165.439682 
	C129.529419,165.439682 129.427917,165.466843 129.132721,165.452728 
	C128.750229,165.749939 128.662949,166.061264 128.575668,166.372604 
	C128.575668,166.372604 128.472504,166.460449 128.156601,166.448578 
	C127.754036,166.746506 127.667366,167.056305 127.580704,167.366104 
	C127.580704,167.366104 127.478043,167.464188 127.162750,167.455475 
	C126.770477,167.753403 126.693489,168.060013 126.616486,168.366638 
	C126.616486,168.366638 126.515678,168.452271 126.146698,168.438690 
	C125.179947,169.279587 124.582176,170.134064 123.984413,170.988525 
	C123.984413,170.988525 124.000000,171.000000 123.751175,171.068695 
	C123.327263,171.415329 123.152176,171.693253 122.977081,171.971161 
	C122.977074,171.971161 122.931404,171.990723 122.607994,172.011520 
	C121.985146,172.501831 121.685715,172.971329 121.386276,173.440826 
	C121.386276,173.440826 121.257973,173.275940 121.028801,173.311081 
	C120.517647,173.874115 120.235664,174.402008 119.953682,174.929901 
	C119.953682,174.929901 119.996033,174.996109 119.646919,175.016571 
	C119.034752,175.515610 118.771698,175.994171 118.508636,176.472748 
	C118.508636,176.472748 118.402550,176.361130 118.115837,176.385254 
	C117.705101,176.749542 117.581085,177.089691 117.457069,177.429840 
	C117.457069,177.429840 117.377533,177.451096 117.022675,177.324005 
	C115.872269,177.122818 115.076721,177.048737 114.234375,176.570740 
	C114.226723,175.084335 114.265877,174.001862 114.473724,172.758408 
	C114.461288,172.086548 114.280144,171.575684 113.998764,170.721954 
	C112.531853,168.352554 111.341522,166.174530 109.759644,164.332825 
	C106.973427,161.088959 103.948097,158.050491 101.153458,154.625275 
	C112.047020,143.505112 122.838570,132.713882 133.563644,121.857002 
	C141.663879,113.657234 146.386185,103.849823 147.467529,92.525337 
	C154.729141,104.656029 164.817749,105.300461 173.860809,94.480965 
	C173.958542,94.364052 174.706833,94.790901 175.151428,94.963913 
z"/>
<path fill="#06317E" opacity="1.000000" stroke="none" 
	d="
M114.305023,172.919388 
	C114.265877,174.001862 114.226723,175.084335 114.108124,176.921234 
	C113.677368,179.093201 113.326050,180.510727 112.974731,181.928268 
	C105.099770,191.158020 96.083183,191.283035 88.395836,181.676941 
	C87.631432,179.723450 87.150574,178.358154 86.669716,176.992859 
	C86.680840,175.906021 86.691971,174.819199 86.800522,172.973724 
	C86.976166,171.468826 87.054382,170.722565 87.132599,169.976318 
	C87.132607,169.976318 87.278343,169.813766 87.505272,169.492233 
	C88.223808,168.163055 88.715424,167.155396 89.207039,166.147751 
	C89.207039,166.147751 89.119629,166.102875 89.368622,166.045822 
	C89.789024,165.679794 89.960434,165.370819 90.131844,165.061844 
	C90.131844,165.061844 90.050247,165.048431 90.310104,164.997070 
	C90.761642,164.648331 90.953323,164.350952 91.145004,164.053574 
	C94.042915,161.254074 96.940834,158.454575 100.192307,155.311203 
	C100.545868,154.967346 101.022888,154.926010 101.022888,154.926010 
	C103.948097,158.050491 106.973427,161.088959 109.759644,164.332825 
	C111.341522,166.174530 112.531853,168.352554 113.972778,171.036026 
	C114.133026,172.101746 114.219025,172.510574 114.305023,172.919388 
z"/>
<path fill="#8AF6DB" opacity="1.000000" stroke="none" 
	d="
M175.374420,94.656235 
	C174.706833,94.790901 173.958542,94.364052 173.860809,94.480965 
	C164.817749,105.300461 154.729141,104.656029 147.375977,92.065102 
	C147.129135,88.894081 147.179520,86.426239 147.229889,83.958397 
	C150.446686,77.598312 155.169540,72.724617 162.684952,74.261185 
	C166.797989,75.102112 170.371017,78.584358 174.513443,80.916870 
	C175.092041,85.421661 175.344742,89.885109 175.374420,94.656235 
z"/>
<path fill="#095DF8" opacity="1.000000" stroke="none" 
	d="
M53.024445,92.986862 
	C50.411808,98.703690 46.332142,102.333656 39.701355,102.227722 
	C33.427517,102.127495 29.092773,99.149109 26.491489,93.096611 
	C26.340359,89.316521 26.439541,85.755165 26.671230,81.773392 
	C27.211559,81.080887 27.681183,80.869720 28.018196,80.527832 
	C37.199501,71.213753 45.708282,72.035973 53.240494,83.341835 
	C53.598900,84.118820 53.627148,84.501076 53.466522,85.168381 
	C53.437416,87.001953 53.597191,88.550491 53.721802,90.389786 
	C53.606636,91.062546 53.526627,91.444557 53.285400,91.976028 
	C52.992489,92.401207 52.959244,92.688332 53.024445,92.986862 
z"/>
<path fill="#91E5DB" opacity="1.000000" stroke="none" 
	d="
M47.991093,141.366882 
	C49.587860,142.486298 51.256287,143.937271 52.940323,145.743530 
	C51.324871,144.632019 49.693810,143.165237 47.991093,141.366882 
z"/>
<path fill="#2660D5" opacity="1.000000" stroke="none" 
	d="
M113.276749,181.814453 
	C113.326050,180.510727 113.677368,179.093201 114.154938,177.325165 
	C115.076721,177.048737 115.872269,177.122818 117.042580,177.360016 
	C116.137825,178.915649 114.858299,180.308136 113.276749,181.814453 
z"/>
<path fill="#91E5DB" opacity="1.000000" stroke="none" 
	d="
M86.318893,176.992340 
	C87.150574,178.358154 87.631432,179.723450 88.150475,181.445984 
	C86.797554,180.441818 85.406441,179.080414 83.935211,177.394470 
	C84.559418,177.043900 85.263748,177.017853 86.318893,176.992340 
z"/>
<path fill="#3F75E4" opacity="1.000000" stroke="none" 
	d="
M137.768188,157.291214 
	C138.554306,156.072449 139.628830,154.729065 141.058105,153.417511 
	C140.294098,154.688431 139.175354,155.927521 137.768188,157.291214 
z"/>
<path fill="#91E5DB" opacity="1.000000" stroke="none" 
	d="
M79.926926,173.398895 
	C80.882095,173.839813 81.921776,174.602081 82.944901,175.757202 
	C81.956047,175.340134 80.983742,174.530197 79.926926,173.398895 
z"/>
<path fill="#3F75E4" opacity="1.000000" stroke="none" 
	d="
M149.721405,145.272339 
	C150.507767,144.049652 151.587112,142.705399 153.019775,141.366623 
	C152.253510,142.631653 151.133957,143.891220 149.721405,145.272339 
z"/>
<path fill="#3F75E4" opacity="1.000000" stroke="none" 
	d="
M159.316284,134.940887 
	C159.496475,134.157227 159.972931,133.233704 160.746246,132.169632 
	C160.566269,132.953049 160.089401,133.877045 159.316284,134.940887 
z"/>
<path fill="#3F75E4" opacity="1.000000" stroke="none" 
	d="
M124.267380,170.891724 
	C124.582176,170.134064 125.179947,169.279587 126.111908,168.494934 
	C125.814178,169.308151 125.182266,170.051529 124.267380,170.891724 
z"/>
<path fill="#3F75E4" opacity="1.000000" stroke="none" 
	d="
M147.686050,147.282318 
	C147.848541,146.703552 148.285187,146.034103 149.056915,145.400513 
	C148.914734,146.021469 148.437469,146.606552 147.686050,147.282318 
z"/>
<path fill="#3F75E4" opacity="1.000000" stroke="none" 
	d="
M154.667099,140.243530 
	C154.809784,139.676392 155.224808,138.997162 155.967484,138.289200 
	C155.843246,138.884109 155.391342,139.507767 154.667099,140.243530 
z"/>
<path fill="#3F75E4" opacity="1.000000" stroke="none" 
	d="
M129.779221,165.338730 
	C129.799026,164.966934 130.068634,164.494186 130.654358,163.998688 
	C130.656631,164.396545 130.342819,164.817154 129.779221,165.338730 
z"/>
<path fill="#2660D5" opacity="1.000000" stroke="none" 
	d="
M118.750854,176.353302 
	C118.771698,175.994171 119.034752,175.515610 119.613831,174.995361 
	C119.617599,175.380417 119.305328,175.807129 118.750854,176.353302 
z"/>
<path fill="#2660D5" opacity="1.000000" stroke="none" 
	d="
M120.223404,174.839508 
	C120.235664,174.402008 120.517647,173.874115 121.120514,173.361099 
	C121.125298,173.833694 120.809204,174.291412 120.223404,174.839508 
z"/>
<path fill="#2660D5" opacity="1.000000" stroke="none" 
	d="
M121.653534,173.350311 
	C121.685715,172.971329 121.985146,172.501831 122.598915,171.988403 
	C122.582428,172.382919 122.251610,172.821365 121.653534,173.350311 
z"/>
<path fill="#3F75E4" opacity="1.000000" stroke="none" 
	d="
M131.246124,163.903030 
	C131.256134,163.450836 131.535706,162.931183 132.130234,162.454498 
	C132.135361,162.943512 131.825516,163.389557 131.246124,163.903030 
z"/>
<path fill="#91E5DB" opacity="1.000000" stroke="none" 
	d="
M66.330475,160.221436 
	C66.726189,160.172836 67.225075,160.384628 67.847710,160.849670 
	C67.458855,160.895874 66.946251,160.688858 66.330475,160.221436 
z"/>
<path fill="#3F75E4" opacity="1.000000" stroke="none" 
	d="
M157.440277,137.166656 
	C157.446899,136.811310 157.695511,136.392151 158.199371,135.913589 
	C158.197174,136.270416 157.939728,136.686630 157.440277,137.166656 
z"/>
<path fill="#3F75E4" opacity="1.000000" stroke="none" 
	d="
M132.749664,162.305618 
	C132.645874,162.061981 132.739136,161.746231 133.109802,161.486572 
	C133.342316,161.837936 133.195465,162.068222 132.749664,162.305618 
z"/>
<path fill="#3F75E4" opacity="1.000000" stroke="none" 
	d="
M128.766937,166.303009 
	C128.662949,166.061264 128.750229,165.749939 129.110229,165.500214 
	C129.341202,165.848816 129.199615,166.072678 128.766937,166.303009 
z"/>
<path fill="#3F75E4" opacity="1.000000" stroke="none" 
	d="
M127.771469,167.298569 
	C127.667366,167.056305 127.754036,166.746506 128.112320,166.499863 
	C128.342590,166.848328 128.202026,167.070999 127.771469,167.298569 
z"/>
<path fill="#3F75E4" opacity="1.000000" stroke="none" 
	d="
M126.799774,168.295273 
	C126.693489,168.060013 126.770477,167.753403 127.115051,167.508057 
	C127.349701,167.848709 127.216515,168.066895 126.799774,168.295273 
z"/>
<path fill="#3F75E4" opacity="1.000000" stroke="none" 
	d="
M123.231461,171.913788 
	C123.152176,171.693253 123.327263,171.415329 123.744522,171.061798 
	C123.819740,171.276260 123.652786,171.566345 123.231461,171.913788 
z"/>
<path fill="#2660D5" opacity="1.000000" stroke="none" 
	d="
M117.680260,177.351776 
	C117.581085,177.089691 117.705101,176.749542 118.130508,176.460846 
	C118.353455,176.833908 118.177307,177.087723 117.680260,177.351776 
z"/>
<path fill="#3F75E4" opacity="1.000000" stroke="none" 
	d="
M133.748795,161.305206 
	C133.647430,161.062988 133.741623,160.748978 134.111649,160.492706 
	C134.338577,160.842209 134.190872,161.069870 133.748795,161.305206 
z"/>
<path fill="#3F75E4" opacity="1.000000" stroke="none" 
	d="
M134.759003,160.299072 
	C134.650589,160.058365 134.737823,159.741486 135.102097,159.473785 
	C135.344986,159.821396 135.203491,160.054703 134.759003,160.299072 
z"/>
<path fill="#3F75E4" opacity="1.000000" stroke="none" 
	d="
M135.738953,159.302032 
	C135.637100,159.059418 135.734207,158.748016 136.105316,158.488190 
	C136.333450,158.835358 136.186310,159.066528 135.738953,159.302032 
z"/>
<path fill="#3F75E4" opacity="1.000000" stroke="none" 
	d="
M136.749451,158.292572 
	C136.644638,158.055511 136.737350,157.742706 137.105072,157.471664 
	C137.340424,157.812378 137.196060,158.046829 136.749451,158.292572 
z"/>
<path fill="#3F75E4" opacity="1.000000" stroke="none" 
	d="
M161.185684,131.880920 
	C160.942856,131.696136 161.024567,131.405304 161.500153,131.066208 
	C161.613159,131.233368 161.485229,131.485672 161.185684,131.880920 
z"/>
<path fill="#3F75E4" opacity="1.000000" stroke="none" 
	d="
M141.709778,153.295868 
	C141.609238,153.051758 141.715805,152.735519 142.100998,152.461578 
	C142.331894,152.812271 142.177658,153.052216 141.709778,153.295868 
z"/>
<path fill="#3F75E4" opacity="1.000000" stroke="none" 
	d="
M142.721741,152.288788 
	C142.613129,152.046936 142.711411,151.725677 143.091660,151.436676 
	C143.340317,151.784836 143.191986,152.031662 142.721741,152.288788 
z"/>
<path fill="#3F75E4" opacity="1.000000" stroke="none" 
	d="
M143.692444,151.296783 
	C143.593323,151.048355 143.705093,150.730576 144.097687,150.458084 
	C144.328171,150.815628 144.169769,151.056976 143.692444,151.296783 
z"/>
<path fill="#3F75E4" opacity="1.000000" stroke="none" 
	d="
M144.725739,150.288895 
	C144.613510,150.049194 144.708801,149.727631 145.085632,149.429504 
	C145.338837,149.771240 145.194199,150.022598 144.725739,150.288895 
z"/>
<path fill="#3F75E4" opacity="1.000000" stroke="none" 
	d="
M145.684540,149.281708 
	C145.576614,149.037247 145.686157,148.716949 146.076599,148.415146 
	C146.327621,148.762970 146.175797,149.020370 145.684540,149.281708 
z"/>
<path fill="#3F75E4" opacity="1.000000" stroke="none" 
	d="
M146.669739,148.279419 
	C146.561157,148.029999 146.677094,147.710190 147.074692,147.406143 
	C147.335785,147.762634 147.181747,148.024994 146.669739,148.279419 
z"/>
<path fill="#3F75E4" opacity="1.000000" stroke="none" 
	d="
M153.638641,141.264740 
	C153.536469,141.020248 153.660568,140.702499 154.064789,140.393005 
	C154.312607,140.742218 154.152603,141.005630 153.638641,141.264740 
z"/>
<path fill="#3F75E4" opacity="1.000000" stroke="none" 
	d="
M156.527954,138.190659 
	C156.415817,137.954041 156.552963,137.633179 156.959503,137.250854 
	C157.078354,137.495071 156.927795,137.800735 156.527954,138.190659 
z"/>
<path fill="#FCFEFE" opacity="1.000000" stroke="none" 
	d="
M53.446621,91.826561 
	C53.526627,91.444557 53.606636,91.062546 53.873093,89.970459 
	C53.924831,87.801361 53.790115,86.342346 53.655399,84.883339 
	C53.627148,84.501076 53.598900,84.118820 53.548653,83.449387 
	C55.915554,74.903152 58.061069,66.649803 63.526386,59.573891 
	C75.318855,44.306252 94.966171,37.785160 114.256050,43.225883 
	C131.639343,48.128849 145.398331,64.852005 147.160522,83.546616 
	C147.179520,86.426239 147.129135,88.894081 147.170334,91.822159 
	C146.386185,103.849823 141.663879,113.657234 133.563644,121.857002 
	C122.838570,132.713882 112.047020,143.505112 101.153458,154.625275 
	C101.022888,154.926010 100.545868,154.967346 100.308868,154.995346 
	C90.762260,145.534790 81.676453,135.812500 72.079956,126.623566 
	C62.530235,117.479454 55.772797,107.039017 53.867825,93.042915 
	C53.667351,92.166862 53.556984,91.996712 53.446621,91.826561 
M106.855324,75.284325 
	C101.061096,72.879723 95.717926,73.584793 91.157509,77.957016 
	C87.079117,81.867104 85.926140,86.761948 87.508629,92.147224 
	C89.280510,98.176979 94.769684,102.090591 100.991028,102.032104 
	C107.051361,101.975128 112.217804,98.151146 114.093887,92.333923 
	C116.212410,85.764954 114.039566,80.288979 106.855324,75.284325 
z"/>
<path fill="#91E5DB" opacity="1.000000" stroke="none" 
	d="
M88.805359,166.165039 
	C88.715424,167.155396 88.223808,168.163055 87.466576,169.390167 
	C87.601860,168.467194 88.002769,167.324768 88.805359,166.165039 
z"/>
<path fill="#91E5DB" opacity="1.000000" stroke="none" 
	d="
M86.872482,170.123596 
	C87.054382,170.722565 86.976166,171.468826 86.767288,172.566864 
	C86.628540,172.036057 86.620461,171.153473 86.872482,170.123596 
z"/>
<path fill="#83ACFC" opacity="1.000000" stroke="none" 
	d="
M53.285400,91.976028 
	C53.556984,91.996712 53.667351,92.166862 53.802395,92.639893 
	C53.827076,92.942757 53.426483,92.979500 53.225464,92.983185 
	C52.959244,92.688332 52.992489,92.401207 53.285400,91.976028 
z"/>
<path fill="#91E5DB" opacity="1.000000" stroke="none" 
	d="
M89.875656,165.160339 
	C89.960434,165.370819 89.789024,165.679794 89.369003,166.094940 
	C89.286751,165.887024 89.453110,165.572922 89.875656,165.160339 
z"/>
<path fill="#91E5DB" opacity="1.000000" stroke="none" 
	d="
M90.890053,164.146210 
	C90.953323,164.350952 90.761642,164.648331 90.315575,165.038055 
	C90.252495,164.833206 90.443802,164.536041 90.890053,164.146210 
z"/>
<path fill="#2660D5" opacity="1.000000" stroke="none" 
	d="
M114.473724,172.758408 
	C114.219025,172.510574 114.133026,172.101746 114.073021,171.378876 
	C114.280144,171.575684 114.461288,172.086548 114.473724,172.758408 
z"/>
<path fill="#83ACFC" opacity="1.000000" stroke="none" 
	d="
M53.466522,85.168381 
	C53.790115,86.342346 53.924831,87.801361 53.908257,89.679703 
	C53.597191,88.550491 53.437416,87.001953 53.466522,85.168381 
z"/>
<path fill="#09307B" opacity="1.000000" stroke="none" 
	d="
M107.176979,75.498474 
	C114.039566,80.288979 116.212410,85.764954 114.093887,92.333923 
	C112.217804,98.151146 107.051361,101.975128 100.991028,102.032104 
	C94.769684,102.090591 89.280510,98.176979 87.508629,92.147224 
	C85.926140,86.761948 87.079117,81.867104 91.157509,77.957016 
	C95.717926,73.584793 101.061096,72.879723 107.176979,75.498474 
z"/>
</svg>